<svg version="1.1" width="70" height="70" xmlns="http://www.w3.org/2000/svg" xmlns:xlink="http://www.w3.org/1999/xlink" x="0px" y="0px" viewBox="0 0 500 500" style="enable-background:new 0 0 500 500;" xml:space="preserve">
<style type="text/css">
	.st0{fill:#F26667;}
	.st1{fill:#F04D49;}
	.st2{fill:#FFFFFF;}
</style>
<g id="Layer_2">
<rect x="0" class="st0" width="500" height="500"></rect>
<polygon class="st1" points="499,337 366.8,205.7 296.6,205.5 263.3,239.7 228,204.1 132,211.1 148.1,224.7 132,219.8 135,308.6
		335.3,500 500,500 	"></polygon>
</g>
<g id="Layer_1">
<g>
<path class="st2" d="M114.3,258c0-41,31-69,71-69c29.4,0,46.4,16,55.8,32.6l-24.4,12c-5.6-10.8-17.6-19.4-31.4-19.4
			c-24.2,0-41.8,18.6-41.8,43.8s17.6,43.8,41.8,43.8c13.8,0,25.8-8.4,31.4-19.4l24.4,11.8c-9.6,16.6-26.4,32.8-55.8,32.8
			C145.3,327,114.3,299,114.3,258z"></path>
<path class="st2" d="M251.7,258c0-41,31-69,71-69c29.4,0,46.4,16,55.8,32.6l-24.4,12c-5.6-10.8-17.6-19.4-31.4-19.4
			c-24.2,0-41.8,18.6-41.8,43.8s17.6,43.8,41.8,43.8c13.8,0,25.8-8.4,31.4-19.4l24.4,11.8c-9.6,16.6-26.4,32.8-55.8,32.8
			C282.7,327,251.7,299,251.7,258z"></path>
</g>
</g>
</svg>